{"title":"Red.Eagle.2010.R3.DVDRip.HC-Subs.XVID.AC3.HQ.Hive-CM8","uid":6314466,"size":2194567016,"categoryP":"video","categoryS":"movies","magnet":"?xt=urn:btih:d708d2603c27f54424336dfa94632154f1e302bb&amp;dn=Red.Eagle.2010.R3.DVDRip.HC-Subs.XVID.AC3.HQ.Hive-CM8&amp;tr=udp%3A%2F%2Ftracker.openbittorrent.com%3A80&amp;tr=udp%3A%2F%2Fopen.demonii.com%3A1337&amp;tr=udp%3A%2F%2Ftracker.coppersurfer.tk%3A6969&amp;tr=udp%3A%2F%2Fexodus.desync.com%3A6969","seeders":0,"leechers":0,"uploader":"TvTeam","files":6,"time":1302652919,"description":". \n  &lt;a href=&quot;\nhttp://www.torrenting.com/&quot; rel=&quot;nofollow&quot; target=&quot;_NEW&quot;&gt;\nhttp://www.torrenting.com/&lt;/a&gt;        :     Greatest Movie Tracker on The Net!!!\n &lt;a href=&quot;\nhttp://www.Torrenting.com&quot; rel=&quot;nofollow&quot; target=&quot;_NEW&quot;&gt;\nhttp://www.Torrenting.com&lt;/a&gt;          :     Once &amp; For all ;)\n\n\n               www . Torrenting . Com \n\n(((((((((((((= Enjoy No RAR releases =))))))))))))))))))))\n\n\n...................................NFO:....................................\n\n.[img]http://img858.imageshack.us/img858/800/tumblrld789i6ae81qed68l.jpg[/img]\n\n[color=blue][size=5][b]Red.Eagle.2010.R3.DVDRip.HC-Subs.XVID.AC3.HQ.Hive-CM8[/b][/size][/color]\n\n\n[b]Thx Hive\n\nCM8 Doing It Right The First Time :D\n\n\nAfter the last Thai Blockbuster &quot;Endhiran-The Robot&quot; Movie here comes the \nnext Thai 5-Star Blockbuster Superhero Movie &quot;Red Eagle&quot; aka &quot;Insee Dang&quot;\nYes language is thai with hardcoded English Subs with lots of fighting scenes.\n\nSource is the R3 DVD-9 with retail Subs\n\nVideo: 720x304 @bitrate 1800 2pass\nAudio: Thai AC3 5.1 @448\nSubs: yes english hardcoded\nSample: yes included[/b]\n\n\n\n[url]http://www.imdb.com/title/tt1743711/[/url]\n\n\nGeneral\nComplete name                    : Red.Eagle.2010.R3.DVDRip.HC-Subs.XVID.AC3.HQ.Hive-CM8.avi\nFormat                           : AVI\nFormat/Info                      : Audio Video Interleave\nFormat profile                   : OpenDML\nFile size                        : 2.03 GiB\nDuration                         : 2h 9mn\nOverall bit rate                 : 2 253 Kbps\nWriting application              : AVI-Mux GUI 1.17.7, Aug  8 2006  20:59:17\n\nVideo\nID                               : 0\nFormat                           : MPEG-4 Visual\nFormat profile                   : Advanced Simple@L5\nFormat settings, BVOP            : Yes\nFormat settings, QPel            : Yes\nFormat settings, GMC             : No warppoints\nFormat settings, Matrix          : Default (H.263)\nMuxing mode                      : Packed bitstream\nCodec ID                         : XVID\nCodec ID/Hint                    : XviD\nDuration                         : 2h 9mn\nBit rate                         : 1 800 Kbps\nWidth                            : 720 pixels\nHeight                           : 304 pixels\nDisplay aspect ratio             : 2.35:1\nFrame rate                       : 24.000 fps\nColor space                      : YUV\nChroma subsampling               : 4:2:0\nBit depth                        : 8 bits\nScan type                        : Progressive\nBits/(Pixel*Frame)               : 0.343\nStream size                      : 1.62 GiB (80%)\nWriting library                  : XviD 1.2.1 (UTC 2008-12-04)\n\nAudio\nID                               : 1\nFormat                           : AC-3\nFormat/Info                      : Audio Coding 3\nMode extension                   : CM (complete main)\nCodec ID                         : 2000\nDuration                         : 2h 9mn\nBit rate mode                    : Constant\nBit rate                         : 448 Kbps\nChannel(s)                       : 6 channels\nChannel positions                : Front: L C R, Side: L R, LFE\nSampling rate                    : 48.0 KHz\nBit depth                        : 16 bits\nStream size                      : 414 MiB (20%)\nAlignment                        : Aligned on interleaves\nInterleave, duration             : 64 ms (1.54 video frames)\nInterleave, preload duration     : 192 ms\n\n\nAnanda Everingham ... Rome Rittikrai/Red Eagle\nYarinda Bunnak  ...  Vasana Tienpradab\nWannasingh Prasertkul ...  Detective Chart Wuttikrai\nPornwut Sarain ...   Prime Minister Direk\nBlack Devil\n\n\nYear 2016, Bangkok is a rotten capital infested with chaos and criminals. \nWidespread corruption by politicians has dipped the moral compass to a new low.\nAmidst the mood of despair, a hero emerges. He goes after filthy politicians and \nvile criminals, handing out his own brand of justice when the law fails to fuction. \nNo one knows his true identity.\n\n\n\n[img]http://img96.imageshack.us/img96/9324/27222299.png[/img]\n[img]http://img593.imageshack.us/img593/1345/rere.png[/img]\n[img]http://img705.imageshack.us/img705/8321/rerereg.png[/img]\n[img]http://img806.imageshack.us/img806/3152/rerererererererere.png[/img]\n[img]http://img135.imageshack.us/img135/5463/rererere.png[/img]\n[img]http://img864.imageshack.us/img864/5989/rerererere.png[/img]\n[img]http://img251.imageshack.us/img251/3254/rererererere.png[/img]\n[img]http://img852.imageshack.us/img852/6195/rerererererere.png[/img]\n[img]http://img814.imageshack.us/img814/1946/rererererererere.png[/img]\n\n\n\n\n\n\nGreetz\n\niNK,LUSi,,MAGNET,THC,LEGi0N,T0XiC,IMAGiNE,ViSiON,WBZ,FLAWL3SS,NOVA\nVik,Rapeseed,D2U,SAFC,goldadvance,MEMORY100,KaN1vE,Unevano,Pinnz,Wayne,Mr Hive\nand all P2P groups \nGreat Work Guys :D\n\n&lt;a class=&quot;__cf_email__&quot; href=&quot;/cdn-cgi/l/email-protection&quot; data-cfemail=&quot;4e0d03760e263b3d26232f2722602d2123&quot;&gt;[email&amp;#160;protected]&lt;/a&gt;&lt;script cf-hash='f9e31' type=&quot;text/javascript&quot;&gt;\n/* &lt;![CDATA[ */!function(){try{var t=&quot;currentScript&quot;in document?document.currentScript:function(){for(var t=document.getElementsByTagName(&quot;script&quot;),e=t.length;e--;)if(t[e].getAttribute(&quot;cf-hash&quot;))return t[e]}();if(t&amp;&amp;t.previousSibling){var e,r,n,i,c=t.previousSibling,a=c.getAttribute(&quot;data-cfemail&quot;);if(a){for(e=&quot;&quot;,r=parseInt(a.substr(0,2),16),n=2;a.length-n;n+=2)i=parseInt(a.substr(n,2),16)^r,e+=String.fromCharCode(i);e=document.createTextNode(e),c.parentNode.replaceChild(e,c)}}}catch(u){}}();/* ]]&gt; */&lt;/script&gt;","torrent":{"xt":"urn:btih:d708d2603c27f54424336dfa94632154f1e302bb","amp;dn":"Red.Eagle.2010.R3.DVDRip.HC-Subs.XVID.AC3.HQ.Hive-CM8","amp;tr":["udp%3A%2F%2Ftracker.openbittorrent.com%3A80","udp%3A%2F%2Fopen.demonii.com%3A1337","udp%3A%2F%2Ftracker.coppersurfer.tk%3A6969","udp%3A%2F%2Fexodus.desync.com%3A6969"],"infoHash":"d708d2603c27f54424336dfa94632154f1e302bb","infoHashBuffer":{"type":"Buffer","data":[215,8,210,96,60,39,245,68,36,51,109,250,148,99,33,84,241,227,2,187]},"announce":[],"urlList":[]}}